<svg xmlns="http://www.w3.org/2000/svg" version="1.1" xmlns:xlink="http://www.w3.org/1999/xlink" xmlns:svgjs="http://svgjs.dev/svgjs" width="1500" height="1500" viewBox="0 0 1500 1500"><rect width="1500" height="1500" fill="#ffffff"></rect><g transform="matrix(0.6666666666666666,0,0,0.6666666666666666,249.39393939393938,623.0854934228029)"><svg viewBox="0 0 396 101" data-background-color="#051726" preserveAspectRatio="xMidYMid meet" height="382" width="1500" xmlns="http://www.w3.org/2000/svg" xmlns:xlink="http://www.w3.org/1999/xlink"><g id="tight-bounds" transform="matrix(1,0,0,1,0.2400000000000091,-0.16610537579748552)"><svg viewBox="0 0 395.52 101.33221075159497" height="101.33221075159497" width="395.52"><g><svg viewBox="0 0 397.4975999999999 101.83887180535294" height="101.33221075159497" width="395.52"><g><rect width="397.4975999999999" height="1.8446295146577474" x="0" y="57.24072767887616" fill="#000000" opacity="1" stroke-width="0" stroke="transparent" fill-opacity="1" class="rect-qz-0" data-fill-palette-color="secondary" rx="1%" id="qz-0" data-palette-color="#81ffd9"></rect></g><g transform="matrix(1,0,0,1,0.9887999999999693,63.91423026855419)"><svg viewBox="0 0 395.52 37.92464153679875" height="37.92464153679875" width="395.52"><g id="textblocktransform"><svg viewBox="0 0 395.52 37.92464153679875" height="37.92464153679875" width="395.52" id="textblock"><g><svg viewBox="0 0 395.52 20.454739469578783" height="20.454739469578783" width="395.52"><g transform="matrix(1,0,0,1,0,0)"><svg width="395.52" viewBox="2.65 -32.45 640.9300000000001 33.150000000000006" height="20.454739469578783" data-palette-color="#ffffff"><path d="M2.65 0.45L2.9-1.6Q4.8-1.95 5.45-2.63 6.1-3.3 6.1-4.95L6.1-4.95 6.15-20.85Q6.15-22.1 5.85-22.53 5.55-22.95 4.65-22.95L4.65-22.95 3-22.9 2.9-23.1 3.15-25Q3.45-25 4.78-24.95 6.1-24.9 8.25-24.9L8.25-24.9Q9.4-24.9 11.08-25.05 12.75-25.2 13.25-25.25L13.25-25.25 13.05-23.2Q11.4-23 10.85-22.58 10.3-22.15 10.2-21L10.2-21Q10-17 9.83-12.15 9.65-7.3 9.65-4.65L9.65-4.65Q9.65-3.05 10-2.5 10.35-1.95 11.4-1.95L11.4-1.95Q12.1-1.95 12.68-2 13.25-2.05 13.45-2.1L13.45-2.1 13.55-1.9 13.2 0.1Q12.6 0.1 10.95 0.05 9.3 0 7.65 0L7.65 0Q6.3 0 4.73 0.18 3.15 0.35 2.65 0.45L2.65 0.45ZM32.5 0.7Q27.45-13 24.95-19.35L24.95-19.35 24.7-19.35Q24.5-16.95 23.97-10.4 23.45-3.85 23.45-3.2L23.45-3.2Q23.45-2.55 23.75-2.27 24.05-2 24.75-2L24.75-2 26.35-2 26.45-1.85 26.1 0.15Q25.65 0.15 24.37 0.08 23.1 0 21.85 0L21.85 0Q20.85 0 19.7 0.13 18.55 0.25 18.2 0.3L18.2 0.3 18.4-1.75Q19.7-1.9 20.25-2.53 20.8-3.15 21-4.7L21-4.7Q21.4-8.1 22.07-14.25 22.75-20.4 22.75-21.15L22.75-21.15Q22.75-22.15 21.97-22.63 21.2-23.1 19.3-23.2L19.3-23.2 19.15-23.45 19.5-25.1Q20.05-25.05 21.45-24.98 22.85-24.9 24.15-24.9L24.15-24.9Q25.25-24.9 26.17-24.95 27.1-25 27.4-25.05L27.4-25.05Q28.9-20.4 30.32-16.32 31.75-12.25 32.67-9.83 33.6-7.4 33.85-6.8L33.85-6.8 34.1-6.8Q34.65-8.2 36.57-13.35 38.5-18.5 40.75-24.95L40.75-24.95Q41.05-25 41.52-24.98 42-24.95 42.45-24.95L42.45-24.95Q43-24.9 44.05-24.9L44.05-24.9Q44.85-24.9 46.37-25 47.9-25.1 48.4-25.15L48.4-25.15 48.5-25 48.25-23.25Q46.5-23.05 45.8-22.58 45.1-22.1 45.1-21.1L45.1-21.1Q45.1-20.1 45.45-14.75 45.8-9.4 46.15-5.65L46.15-5.65Q46.4-3.4 46.8-2.7 47.2-2 48.15-2L48.15-2 49.3-2.05 49.4-1.9 49.05 0.1Q48.65 0.1 47.5 0.05 46.35 0 45.05 0L45.05 0Q43.75 0 42.1 0.15 40.45 0.3 40.35 0.3L40.35 0.3 40.55-1.75Q41.85-1.9 42.4-2.35 42.95-2.8 42.95-3.7L42.95-3.7Q42.95-4.6 42.42-10.85 41.9-17.1 41.7-19.35L41.7-19.35 41.45-19.35Q38.5-11.8 33.95 0.4L33.95 0.4 32.5 0.7ZM54.6 0.3L54.9-1.75Q56.65-2.05 57.22-2.68 57.8-3.3 57.8-4.95L57.8-4.95 57.85-20.85Q57.85-22.1 57.55-22.53 57.25-22.95 56.4-22.95L56.4-22.95 55-22.9 54.85-23.1 55.15-25Q55.4-25 56.62-24.95 57.85-24.9 59.85-24.9L59.85-24.9Q61.2-24.9 62.9-24.98 64.6-25.05 65.3-25.05L65.3-25.05Q69.8-25.05 72.07-23.15 74.35-21.25 74.35-17.95L74.35-17.95Q74.35-15.75 73-13.75 71.65-11.75 69.47-10.53 67.3-9.3 64.85-9.3L64.85-9.3 61.4-9.3 61.35-5.8Q61.35-4.05 61.47-3.28 61.6-2.5 61.95-2.25 62.3-2 63.15-2L63.15-2Q63.8-2 64.45-2.05 65.1-2.1 65.3-2.1L65.3-2.1 65.4-1.9 65 0.1Q64.55 0.1 63.35 0.05 62.15 0 60.9 0L60.9 0Q59.25 0 56.95 0.1 54.65 0.2 54.6 0.3L54.6 0.3ZM65.65-11.45Q70.3-12.2 70.3-17.25L70.3-17.25Q70.3-20.05 68.55-21.38 66.8-22.7 63-22.7L63-22.7Q62.3-22.7 62.15-22.63 62-22.55 61.95-22.1L61.95-22.1Q61.55-15.75 61.5-12L61.5-12 65.65-11.45ZM89.49 0.45Q85.04 0.45 82.72-1.75 80.39-3.95 80.39-8.1L80.39-8.1 80.39-20.85Q80.39-22.1 80.09-22.53 79.79-22.95 78.89-22.95L78.89-22.95 77.54-22.9 77.44-23.05 77.74-25Q78.29-25 79.74-24.95 81.19-24.9 82.69-24.9L82.69-24.9Q83.79-24.9 85.24-25.03 86.69-25.15 87.14-25.2L87.14-25.2 86.94-23.2Q85.49-23 84.99-22.55 84.49-22.1 84.39-21L84.39-21 84.09-9.55Q84.09-6 85.74-4.08 87.39-2.15 90.49-2.15L90.49-2.15Q93.64-2.15 95.27-3.73 96.89-5.3 96.89-8.3L96.89-8.3Q96.89-11.4 96.82-15.33 96.74-19.25 96.69-20.85L96.69-20.85Q96.59-22.2 96.34-22.58 96.09-22.95 95.24-22.95L95.24-22.95 93.54-22.9 93.49-23.05 93.79-25Q94.29-25 95.67-24.95 97.04-24.9 98.44-24.9L98.44-24.9Q99.59-24.9 100.92-25.03 102.24-25.15 102.64-25.2L102.64-25.2 102.49-23.2Q100.74-22.95 100.24-22.55 99.74-22.15 99.74-21.05L99.74-21.05 99.74-8.25Q99.74-4.1 97.07-1.83 94.39 0.45 89.49 0.45L89.49 0.45ZM107.44 0.4L107.74-1.7Q109.34-1.95 109.92-2.63 110.49-3.3 110.49-5L110.49-5 110.54-20.85Q110.54-22.1 110.24-22.53 109.94-22.95 109.04-22.95L109.04-22.95 107.69-22.9 107.54-23.1 107.84-25Q108.09-25 109.34-24.95 110.59-24.9 112.69-24.9L112.69-24.9Q113.79-24.9 115.42-25.05 117.04-25.2 117.54-25.25L117.54-25.25 117.34-23.15Q115.99-23 115.44-22.68 114.89-22.35 114.79-21.85 114.69-21.35 114.54-19.8L114.54-19.8Q114.04-13.1 114.04-4.95L114.04-4.95Q114.04-3.7 114.27-3.13 114.49-2.55 115.17-2.35 115.84-2.15 117.29-2.15L117.29-2.15Q119.69-2.15 120.82-2.55 121.94-2.95 122.52-4.13 123.09-5.3 123.54-7.85L123.54-7.85 125.74-8.1 125.89-7.8Q125.79-7.15 125.42-4.83 125.04-2.5 124.74 0.05L124.74 0.05 124.49 0.35Q123.34 0.3 119.62 0.15 115.89 0 113.34 0L113.34 0Q111.34 0 109.62 0.18 107.89 0.35 107.44 0.4L107.44 0.4ZM128.94 0.15L128.29-1.25 143.34-22.8 136.74-22.55Q133.94-22.4 132.81-21.3 131.69-20.2 131.39-17.35L131.39-17.35 129.09-17.15Q129.19-17.85 129.46-20.3 129.74-22.75 129.79-25L129.79-25 130.24-25.4 137.44-24.95 148.34-24.7 148.89-23.45Q143.94-17.25 139.71-11.25 135.49-5.25 133.34-1.95L133.34-1.95 141.14-2.3Q143.24-2.4 144.51-3.9 145.79-5.4 146.39-8.6L146.39-8.6 148.74-8.85Q148.59-8.1 148.21-5.5 147.84-2.9 147.69-0.55L147.69-0.55 147.04 0.1 131.89-0.1 128.94 0.15ZM153.44 0.15L152.79-1.25 167.84-22.8 161.24-22.55Q158.44-22.4 157.31-21.3 156.19-20.2 155.89-17.35L155.89-17.35 153.59-17.15Q153.69-17.85 153.96-20.3 154.24-22.75 154.29-25L154.29-25 154.74-25.4 161.94-24.95 172.84-24.7 173.39-23.45Q168.44-17.25 164.21-11.25 159.99-5.25 157.84-1.95L157.84-1.95 165.64-2.3Q167.74-2.4 169.01-3.9 170.29-5.4 170.89-8.6L170.89-8.6 173.24-8.85Q173.09-8.1 172.71-5.5 172.34-2.9 172.19-0.55L172.19-0.55 171.54 0.1 156.39-0.1 153.44 0.15ZM202.33 0.6Q197.83 0.6 194.43-1.3 191.03-3.2 189.21-6.68 187.38-10.15 187.38-14.85L187.38-14.85Q187.38-19.85 189.63-23.88 191.88-27.9 195.86-30.18 199.83-32.45 204.83-32.45L204.83-32.45Q206.68-32.45 208.61-32.18 210.53-31.9 211.86-31.63 213.18-31.35 213.53-31.25L213.53-31.25 213.73-30.95Q213.63-30.65 213.41-29.5 213.18-28.35 212.91-26.5 212.63-24.65 212.48-22.6L212.48-22.6 210.08-22.4Q210.13-22.65 210.18-23.33 210.23-24 210.23-24.85L210.23-24.85Q210.23-29.5 202.88-29.5L202.88-29.5Q199.58-29.5 197.08-27.9 194.58-26.3 193.23-23.38 191.88-20.45 191.88-16.5L191.88-16.5Q191.88-12.15 193.31-8.85 194.73-5.55 197.33-3.73 199.93-1.9 203.33-1.9L203.33-1.9Q206.73-1.9 208.81-3.83 210.88-5.75 211.83-9.8L211.83-9.8 214.23-10Q214.08-9.25 213.58-6.68 213.08-4.1 212.88-1.85L212.88-1.85 212.58-1.4Q212.58-1.35 211.06-0.83 209.53-0.3 207.26 0.15 204.98 0.6 202.33 0.6L202.33 0.6ZM229.63 0.45Q226.23 0.45 223.6-1.05 220.98-2.55 219.55-5.3 218.13-8.05 218.13-11.65L218.13-11.65Q218.13-15.55 219.9-18.68 221.68-21.8 224.75-23.58 227.83-25.35 231.63-25.35L231.63-25.35Q235.08-25.35 237.73-23.85 240.38-22.35 241.83-19.63 243.28-16.9 243.28-13.3L243.28-13.3Q243.28-9.4 241.5-6.28 239.73-3.15 236.6-1.35 233.48 0.45 229.63 0.45L229.63 0.45ZM230.83-1.95Q234.48-1.95 236.73-4.58 238.98-7.2 238.98-11.55L238.98-11.55Q238.98-14.85 237.9-17.35 236.83-19.85 234.85-21.2 232.88-22.55 230.28-22.55L230.28-22.55Q226.73-22.55 224.55-19.95 222.38-17.35 222.38-13L222.38-13Q222.38-9.7 223.43-7.2 224.48-4.7 226.4-3.33 228.33-1.95 230.83-1.95L230.83-1.95ZM254.88 0.45Q253.13 0.45 251.65 0.15 250.18-0.15 249.3-0.48 248.43-0.8 248.23-0.9L248.23-0.9 247.98-1.35Q248.03-1.6 248.15-2.48 248.28-3.35 248.4-4.93 248.53-6.5 248.53-8.1L248.53-8.1 250.78-8.3Q250.78-5.6 251.2-4.28 251.63-2.95 252.68-2.45 253.73-1.95 255.88-1.95L255.88-1.95Q258.28-1.95 259.75-3 261.23-4.05 261.23-5.8L261.23-5.8Q261.23-6.95 260.4-7.83 259.58-8.7 258.5-9.3 257.43-9.9 255.08-11.05L255.08-11.05Q251.88-12.6 250.15-14.1 248.43-15.6 248.43-17.95L248.43-17.95Q248.43-20.05 249.7-21.75 250.98-23.45 253.23-24.4 255.48-25.35 258.23-25.35L258.23-25.35Q259.88-25.35 261.33-25.15 262.78-24.95 263.63-24.73 264.48-24.5 264.68-24.4L264.68-24.4 264.88-24.05Q264.78-23.5 264.43-21.58 264.08-19.65 263.93-17.45L263.93-17.45 261.98-17.25 261.68-17.45Q261.68-17.6 261.73-18.07 261.78-18.55 261.78-19.25L261.78-19.25Q261.78-21.2 260.75-21.98 259.73-22.75 257.13-22.75L257.13-22.75Q255.03-22.75 253.65-21.78 252.28-20.8 252.28-19.3L252.28-19.3Q252.28-17.8 253.65-16.75 255.03-15.7 257.83-14.35L257.83-14.35Q260.28-13.2 261.75-12.35 263.23-11.5 264.28-10.2 265.33-8.9 265.33-7.2L265.33-7.2Q265.33-4.95 264-3.23 262.68-1.5 260.3-0.53 257.93 0.45 254.88 0.45L254.88 0.45ZM284.82 0.7Q279.77-13 277.27-19.35L277.27-19.35 277.02-19.35Q276.82-16.95 276.3-10.4 275.77-3.85 275.77-3.2L275.77-3.2Q275.77-2.55 276.07-2.27 276.37-2 277.07-2L277.07-2 278.67-2 278.77-1.85 278.42 0.15Q277.97 0.15 276.7 0.08 275.42 0 274.17 0L274.17 0Q273.17 0 272.02 0.13 270.87 0.25 270.52 0.3L270.52 0.3 270.72-1.75Q272.02-1.9 272.57-2.53 273.12-3.15 273.32-4.7L273.32-4.7Q273.72-8.1 274.4-14.25 275.07-20.4 275.07-21.15L275.07-21.15Q275.07-22.15 274.3-22.63 273.52-23.1 271.62-23.2L271.62-23.2 271.47-23.45 271.82-25.1Q272.37-25.05 273.77-24.98 275.17-24.9 276.47-24.9L276.47-24.9Q277.57-24.9 278.5-24.95 279.42-25 279.72-25.05L279.72-25.05Q281.22-20.4 282.65-16.32 284.07-12.25 285-9.83 285.92-7.4 286.17-6.8L286.17-6.8 286.42-6.8Q286.97-8.2 288.9-13.35 290.82-18.5 293.07-24.95L293.07-24.95Q293.37-25 293.85-24.98 294.32-24.95 294.77-24.95L294.77-24.95Q295.32-24.9 296.37-24.9L296.37-24.9Q297.17-24.9 298.7-25 300.22-25.1 300.72-25.15L300.72-25.15 300.82-25 300.57-23.25Q298.82-23.05 298.12-22.58 297.42-22.1 297.42-21.1L297.42-21.1Q297.42-20.1 297.77-14.75 298.12-9.4 298.47-5.65L298.47-5.65Q298.72-3.4 299.12-2.7 299.52-2 300.47-2L300.47-2 301.62-2.05 301.72-1.9 301.37 0.1Q300.97 0.1 299.82 0.05 298.67 0 297.37 0L297.37 0Q296.07 0 294.42 0.15 292.77 0.3 292.67 0.3L292.67 0.3 292.87-1.75Q294.17-1.9 294.72-2.35 295.27-2.8 295.27-3.7L295.27-3.7Q295.27-4.6 294.75-10.85 294.22-17.1 294.02-19.35L294.02-19.35 293.77-19.35Q290.82-11.8 286.27 0.4L286.27 0.4 284.82 0.7ZM317.07 0.45Q313.67 0.45 311.05-1.05 308.42-2.55 307-5.3 305.57-8.05 305.57-11.65L305.57-11.65Q305.57-15.55 307.35-18.68 309.12-21.8 312.2-23.58 315.27-25.35 319.07-25.35L319.07-25.35Q322.52-25.35 325.17-23.85 327.82-22.35 329.27-19.63 330.72-16.9 330.72-13.3L330.72-13.3Q330.72-9.4 328.95-6.28 327.17-3.15 324.05-1.35 320.92 0.45 317.07 0.45L317.07 0.45ZM318.27-1.95Q321.92-1.95 324.17-4.58 326.42-7.2 326.42-11.55L326.42-11.55Q326.42-14.85 325.35-17.35 324.27-19.85 322.3-21.2 320.32-22.55 317.72-22.55L317.72-22.55Q314.17-22.55 312-19.95 309.82-17.35 309.82-13L309.82-13Q309.82-9.7 310.87-7.2 311.92-4.7 313.85-3.33 315.77-1.95 318.27-1.95L318.27-1.95ZM345.31 0.45L345.56-1.6Q347.47-1.95 348.12-2.63 348.77-3.3 348.77-4.95L348.77-4.95 348.81-20.85Q348.81-22.1 348.52-22.53 348.22-22.95 347.31-22.95L347.31-22.95 345.67-22.9 345.56-23.1 345.81-25Q346.12-25 347.44-24.95 348.77-24.9 350.92-24.9L350.92-24.9Q352.06-24.9 353.74-25.05 355.42-25.2 355.92-25.25L355.92-25.25 355.72-23.2Q354.06-23 353.52-22.58 352.97-22.15 352.87-21L352.87-21Q352.67-17 352.49-12.15 352.31-7.3 352.31-4.65L352.31-4.65Q352.31-3.05 352.67-2.5 353.02-1.95 354.06-1.95L354.06-1.95Q354.77-1.95 355.34-2 355.92-2.05 356.12-2.1L356.12-2.1 356.22-1.9 355.87 0.1Q355.27 0.1 353.62 0.05 351.97 0 350.31 0L350.31 0Q348.97 0 347.39 0.18 345.81 0.35 345.31 0.45L345.31 0.45ZM375.16 0.7Q370.11-13 367.61-19.35L367.61-19.35 367.36-19.35Q367.16-16.95 366.64-10.4 366.11-3.85 366.11-3.2L366.11-3.2Q366.11-2.55 366.41-2.27 366.71-2 367.41-2L367.41-2 369.01-2 369.11-1.85 368.76 0.15Q368.31 0.15 367.04 0.08 365.76 0 364.51 0L364.51 0Q363.51 0 362.36 0.13 361.21 0.25 360.86 0.3L360.86 0.3 361.06-1.75Q362.36-1.9 362.91-2.53 363.46-3.15 363.66-4.7L363.66-4.7Q364.06-8.1 364.74-14.25 365.41-20.4 365.41-21.15L365.41-21.15Q365.41-22.15 364.64-22.63 363.86-23.1 361.96-23.2L361.96-23.2 361.81-23.45 362.16-25.1Q362.71-25.05 364.11-24.98 365.51-24.9 366.81-24.9L366.81-24.9Q367.91-24.9 368.84-24.95 369.76-25 370.06-25.05L370.06-25.05Q371.56-20.4 372.99-16.32 374.41-12.25 375.34-9.83 376.26-7.4 376.51-6.8L376.51-6.8 376.76-6.8Q377.31-8.2 379.24-13.35 381.16-18.5 383.41-24.95L383.41-24.95Q383.71-25 384.19-24.98 384.66-24.95 385.11-24.95L385.11-24.95Q385.66-24.9 386.71-24.9L386.71-24.9Q387.51-24.9 389.04-25 390.56-25.1 391.06-25.15L391.06-25.15 391.16-25 390.91-23.25Q389.16-23.05 388.46-22.58 387.76-22.1 387.76-21.1L387.76-21.1Q387.76-20.1 388.11-14.75 388.46-9.4 388.81-5.65L388.81-5.65Q389.06-3.4 389.46-2.7 389.86-2 390.81-2L390.81-2 391.96-2.05 392.06-1.9 391.71 0.1Q391.31 0.1 390.16 0.05 389.01 0 387.71 0L387.71 0Q386.41 0 384.76 0.15 383.11 0.3 383.01 0.3L383.01 0.3 383.21-1.75Q384.51-1.9 385.06-2.35 385.61-2.8 385.61-3.7L385.61-3.7Q385.61-4.6 385.09-10.85 384.56-17.1 384.36-19.35L384.36-19.35 384.11-19.35Q381.16-11.8 376.61 0.4L376.61 0.4 375.16 0.7ZM397.26 0.3L397.56-1.75Q399.31-2.05 399.88-2.68 400.46-3.3 400.46-4.95L400.46-4.95 400.51-20.85Q400.51-22.1 400.21-22.53 399.91-22.95 399.06-22.95L399.06-22.95 397.66-22.9 397.51-23.1 397.81-25Q398.06-25 399.29-24.95 400.51-24.9 402.51-24.9L402.51-24.9Q403.86-24.9 405.56-24.98 407.26-25.05 407.96-25.05L407.96-25.05Q412.46-25.05 414.74-23.15 417.01-21.25 417.01-17.95L417.01-17.95Q417.01-15.75 415.66-13.75 414.31-11.75 412.13-10.53 409.96-9.3 407.51-9.3L407.51-9.3 404.06-9.3 404.01-5.8Q404.01-4.05 404.13-3.28 404.26-2.5 404.61-2.25 404.96-2 405.81-2L405.81-2Q406.46-2 407.11-2.05 407.76-2.1 407.96-2.1L407.96-2.1 408.06-1.9 407.66 0.1Q407.21 0.1 406.01 0.05 404.81 0 403.56 0L403.56 0Q401.91 0 399.61 0.1 397.31 0.2 397.26 0.3L397.26 0.3ZM408.31-11.45Q412.96-12.2 412.96-17.25L412.96-17.25Q412.96-20.05 411.21-21.38 409.46-22.7 405.66-22.7L405.66-22.7Q404.96-22.7 404.81-22.63 404.66-22.55 404.61-22.1L404.61-22.1Q404.21-15.75 404.16-12L404.16-12 408.31-11.45ZM421.01 0.4L421.26-1.7Q423.11-1.9 423.76-2.6 424.41-3.3 424.41-5L424.41-5 424.46-20.85Q424.46-22.1 424.16-22.53 423.86-22.95 422.96-22.95L422.96-22.95 421.61-22.9 421.51-23.1 421.81-25Q422.41-25 424.16-24.95 425.91-24.9 427.96-24.9L427.96-24.9Q436.31-24.9 440.31-25.35L440.31-25.35 440.46-25.1Q440.36-24.55 440.01-22.6 439.66-20.65 439.51-18.4L439.51-18.4 437.11-18.2Q437.11-18.4 437.16-18.88 437.21-19.35 437.21-19.85L437.21-19.85Q437.21-21.15 436.83-21.68 436.46-22.2 435.28-22.38 434.11-22.55 431.21-22.55L431.21-22.55Q429.86-22.55 429.36-22.48 428.86-22.4 428.71-22.13 428.56-21.85 428.51-21.1L428.51-21.1 428.21-14 432.31-13.95Q433.21-13.95 434.96-14.13 436.71-14.3 437.26-14.35L437.26-14.35 437.46-14.1 436.86-11.5Q436.31-11.5 434.68-11.55 433.06-11.6 431.26-11.6L431.26-11.6Q429.86-11.6 428.11-11.35L428.11-11.35Q427.96-7.55 427.96-4.5L427.96-4.5Q427.96-3.35 428.13-2.9 428.31-2.45 428.93-2.3 429.56-2.15 431.01-2.15L431.01-2.15Q434.26-2.15 435.66-2.45 437.06-2.75 437.63-3.68 438.21-4.6 438.56-6.85L438.56-6.85 440.76-7.05 440.96-6.8Q440.81-6.25 440.43-4.23 440.06-2.2 439.86 0L439.86 0 439.56 0.25Q438.21 0.2 433.96 0.1 429.71 0 427.06 0L427.06 0Q425.01 0 423.26 0.18 421.51 0.35 421.01 0.4L421.01 0.4ZM451.4-24.9Q453.31-24.9 455-25.03 456.7-25.15 457.15-25.2L457.15-25.2 457.25-24.9 457.1-23.25Q455.56-23.2 454.83-22.88 454.1-22.55 454.1-21.95L454.1-21.95Q454.1-21.45 455.18-19.83 456.25-18.2 458.5-15L458.5-15 460.06-16.95Q460.31-17.3 461.38-18.65 462.45-20 463-20.88 463.56-21.75 463.56-22.1L463.56-22.1Q463.56-22.6 463-22.85 462.45-23.1 461.25-23.2L461.25-23.2 461.15-23.35 461.4-25.15Q461.65-25.15 463.33-25.03 465-24.9 466.15-24.9L466.15-24.9Q467.5-24.9 468.7-24.95 469.9-25 470.31-25.05L470.31-25.05 470.45-24.75 470.2-23.05Q468.4-22.6 467.4-21.83 466.4-21.05 464.65-18.95L464.65-18.95 459.85-13.05 465.56-5.25Q466.7-3.7 467.98-2.93 469.25-2.15 471.1-2L471.1-2 471.2-1.85 470.9 0.1Q470.35 0.1 468.85 0.05 467.35 0 465.75 0L465.75 0Q464.35 0 462.1 0.13 459.85 0.25 459.15 0.3L459.15 0.3 459 0 459.15-1.75Q460.7-1.85 461.43-2.13 462.15-2.4 462.15-3.05L462.15-3.05Q462.15-3.35 461.93-3.78 461.7-4.2 461.35-4.65L461.35-4.65 457.1-10.6 453.6-6.2Q452.5-4.8 452.1-4.15 451.7-3.5 451.7-3L451.7-3Q451.7-2 453.95-1.85L453.95-1.85 454.1-1.65 453.81 0.25Q453.31 0.2 451.68 0.1 450.06 0 449.1 0L449.1 0Q447.75 0 446.53 0.05 445.31 0.1 444.85 0.15L444.85 0.15 444.7-0.15 444.95-2Q446.56-2.45 448-3.7 449.45-4.95 451.45-7.3L451.45-7.3 455.85-12.55 450.7-19.75Q449.65-21.2 448.35-21.98 447.06-22.75 445.2-23L445.2-23 445.1-23.2 445.35-25Q446-25 447.78-24.95 449.56-24.9 451.4-24.9L451.4-24.9ZM485.05 0.4L485.4-1.9Q487.6-2.3 488.3-3.08 489-3.85 489-6L489-6 489.05-27Q489.05-28.6 488.67-29.15 488.3-29.7 487.2-29.7L487.2-29.7Q486.7-29.7 486.2-29.65 485.7-29.6 485.5-29.6L485.5-29.6 485.4-29.8 485.75-32Q486.35-31.95 488-31.9 489.65-31.85 491.3-31.85L491.3-31.85Q492.85-31.85 494.82-31.93 496.8-32 497.6-32.05L497.6-32.05Q502.8-32.05 505.55-29.75 508.3-27.45 508.3-23.15L508.3-23.15Q508.3-20.35 506.67-17.82 505.05-15.3 502.4-13.75 499.75-12.2 496.85-12.2L496.85-12.2 492.65-12.2 492.55-7.3Q492.55-4.9 492.7-3.88 492.85-2.85 493.27-2.53 493.7-2.2 494.75-2.2L494.75-2.2Q495.6-2.2 496.38-2.25 497.15-2.3 497.45-2.35L497.45-2.35 497.55-2.15 497.1 0.15Q496.6 0.1 495.27 0.05 493.95 0 492.5 0L492.5 0Q490.5 0 487.82 0.15 485.15 0.3 485.05 0.4L485.05 0.4ZM498.05-14.4Q501.05-14.9 502.57-16.85 504.1-18.8 504.1-22.2L504.1-22.2Q504.1-26.05 501.82-27.83 499.55-29.6 494.7-29.6L494.7-29.6Q493.8-29.6 493.6-29.5 493.4-29.4 493.35-28.9L493.35-28.9Q492.9-22.55 492.75-15.15L492.75-15.15 498.05-14.4ZM519.65 0.65Q519.05-1.4 516.92-8.13 514.8-14.85 512.85-20.65L512.85-20.65Q512.5-21.75 511.62-22.3 510.75-22.85 509.25-22.95L509.25-22.95 509.15-23.1 509.45-25Q510-25 511.45-24.95 512.9-24.9 514.3-24.9L514.3-24.9Q515.8-24.9 517.9-25.08 520-25.25 520.65-25.3L520.65-25.3 520.8-25 520.65-23.2Q518.45-23.05 517.77-22.75 517.1-22.45 517.1-21.65L517.1-21.65Q517.1-20.85 519.12-13.8 521.15-6.75 521.9-4.2L521.9-4.2 522.35-4.2Q524.1-8.4 526.42-14.6 528.75-20.8 528.75-21.6L528.75-21.6Q528.75-22.4 528.15-22.73 527.55-23.05 526.1-23.05L526.1-23.05 524.1-23.05 524-23.25 524.25-25.15Q524.8-25.1 526.62-25 528.45-24.9 530.15-24.9L530.15-24.9Q531.7-24.9 533-24.95 534.3-25 534.75-25L534.75-25 534.4-22.95Q533.2-22.9 532.72-22.53 532.25-22.15 531.8-21L531.8-21 523.35-0.2 519.65 0.65ZM540.69 0.2L541.04-1.8Q543.04-1.95 543.87-2.3 544.69-2.65 544.92-3.48 545.14-4.3 545.14-6.35L545.14-6.35 545.14-22.9Q541.99-22.8 540.89-22.55 539.79-22.3 539.27-21.38 538.74-20.45 538.39-17.9L538.39-17.9 536.04-17.75Q536.14-18.4 536.37-20.63 536.59-22.85 536.64-25L536.64-25 537.04-25.35 540.59-24.95 553.34-24.95 556.99-25.35 557.39-25Q557.44-22.8 557.64-20.65 557.84-18.5 557.94-17.9L557.94-17.9 555.64-17.75Q555.24-20.35 554.72-21.33 554.19-22.3 553.17-22.55 552.14-22.8 549.24-22.9L549.24-22.9Q548.99-20.5 548.79-14.93 548.59-9.35 548.59-4.65L548.59-4.65Q548.59-3.2 549.14-2.6 549.69-2 550.94-2L550.94-2Q551.84-2 552.42-2.05 552.99-2.1 553.14-2.1L553.14-2.1 553.29-1.95 552.94 0.15Q552.24 0.15 550.34 0.08 548.44 0 546.64 0L546.64 0Q544.84 0 543.09 0.08 541.34 0.15 540.69 0.2L540.69 0.2ZM572.19 0.5L572.49-1.8Q574.44-2.1 575.16-2.98 575.89-3.85 575.89-6L575.89-6 575.94-27Q575.94-28.6 575.56-29.15 575.19-29.7 574.09-29.7L574.09-29.7Q573.59-29.7 573.09-29.65 572.59-29.6 572.39-29.6L572.39-29.6 572.29-29.8 572.64-32Q573.24-31.95 574.89-31.9 576.54-31.85 578.24-31.85L578.24-31.85Q579.59-31.85 581.31-32.02 583.04-32.2 583.59-32.3L583.59-32.3 583.39-30.05Q581.74-29.85 581.11-29.4 580.49-28.95 580.36-28.35 580.24-27.75 580.09-25.4L580.09-25.4Q579.79-21.15 579.64-15.7 579.49-10.25 579.49-6.1L579.49-6.1Q579.49-4.3 579.79-3.53 580.09-2.75 580.91-2.5 581.74-2.25 583.74-2.25L583.74-2.25Q586.79-2.25 588.21-2.75 589.64-3.25 590.36-4.7 591.09-6.15 591.69-9.35L591.69-9.35 593.89-9.6 594.04-9.35Q593.89-8.55 593.41-5.75 592.94-2.95 592.59 0.15L592.59 0.15 592.34 0.45Q590.89 0.35 586.36 0.18 581.84 0 578.89 0L578.89 0Q576.54 0 574.61 0.2 572.69 0.4 572.19 0.5L572.19 0.5ZM597.64 0.2L597.99-1.8Q599.99-1.95 600.81-2.3 601.64-2.65 601.86-3.48 602.09-4.3 602.09-6.35L602.09-6.35 602.09-22.9Q598.94-22.8 597.84-22.55 596.74-22.3 596.21-21.38 595.69-20.45 595.34-17.9L595.34-17.9 592.99-17.75Q593.09-18.4 593.31-20.63 593.54-22.85 593.59-25L593.59-25 593.99-25.35 597.54-24.95 610.29-24.95 613.94-25.35 614.34-25Q614.39-22.8 614.59-20.65 614.79-18.5 614.89-17.9L614.89-17.9 612.59-17.75Q612.19-20.35 611.66-21.33 611.14-22.3 610.11-22.55 609.09-22.8 606.19-22.9L606.19-22.9Q605.94-20.5 605.74-14.93 605.54-9.35 605.54-4.65L605.54-4.65Q605.54-3.2 606.09-2.6 606.64-2 607.89-2L607.89-2Q608.79-2 609.36-2.05 609.94-2.1 610.09-2.1L610.09-2.1 610.24-1.95 609.89 0.15Q609.19 0.15 607.29 0.08 605.39 0 603.59 0L603.59 0Q601.79 0 600.04 0.08 598.29 0.15 597.64 0.2L597.64 0.2ZM629.38 0.45Q628.73 0.35 626.76 0.18 624.78 0 623.43 0L623.43 0Q622.13 0 620.58 0.18 619.03 0.35 618.58 0.45L618.58 0.45 618.83-1.65Q620.63-1.95 621.28-2.65 621.93-3.35 621.93-4.95L621.93-4.95 621.98-20.85Q621.98-22.1 621.68-22.53 621.38-22.95 620.53-22.95L620.53-22.95Q620.08-22.95 619.68-22.9 619.28-22.85 619.13-22.85L619.13-22.85 619.03-23.1 619.33-25Q619.83-25 621.16-24.95 622.48-24.9 623.83-24.9L623.83-24.9Q625.63-24.9 627.53-24.98 629.43-25.05 630.13-25.05L630.13-25.05Q634.13-25.05 637.18-23.6 640.23-22.15 641.91-19.53 643.58-16.9 643.58-13.4L643.58-13.4Q643.58-9.5 641.71-6.35 639.83-3.2 636.58-1.38 633.33 0.45 629.38 0.45L629.38 0.45ZM627.48-22.7Q626.68-22.7 626.41-22.53 626.13-22.35 626.08-21.8L626.08-21.8Q625.48-7.75 625.48-5.3L625.48-5.3Q625.48-3.95 625.88-3.23 626.28-2.5 627.28-2.23 628.28-1.95 630.23-1.95L630.23-1.95Q634.43-1.95 636.81-4.7 639.18-7.45 639.18-12.4L639.18-12.4Q639.18-17.45 636.18-20.08 633.18-22.7 627.48-22.7L627.48-22.7Z" opacity="1" transform="matrix(1,0,0,1,0,0)" fill="#000000" class="wordmark-text-0" data-fill-palette-color="primary" id="text-0"></path></svg></g></svg></g><g transform="matrix(1,0,0,1,140.63009583823782,25.283612544599066)"><svg viewBox="0 0 114.25980832352435 12.641028992199688" height="12.641028992199688" width="114.25980832352435"><g transform="matrix(1,0,0,1,0,0)"><svg width="114.25980832352435" viewBox="-0.27 -31.88 295.66999999999996 32.71" height="12.641028992199688" data-palette-color="#81ffd9"><path d="M-0.27-28.52L3.15-27.49 11.08 0.59 15.06-0.1 22.02-23.22 28.42 0.59 32.18-0.1 41.09-27.59 44.09-28.52 44.36-30.37 33.4-30.37 33.13-28.52 37.55-27.49 31.18-7.01 25.12-29.76 20.83-29.15 13.96-6.62 8.06-27.59 12.13-28.52 12.5-30.37-0.05-30.37-0.27-28.52ZM55.49 0.73Q57.88 0.73 59.97-0.13 62.06-1 63.52-2.54L63.52-2.54 63.01-3.83Q61.81-3.2 60.91-2.91 60.01-2.61 59.32-2.55 58.64-2.49 57.47-2.49L57.47-2.49Q55.32-2.49 53.82-3.72 52.32-4.96 51.54-6.88 50.75-8.81 50.66-10.86L50.66-10.86 62.47-11.01Q62.62-11.65 62.74-12.63 62.86-13.62 62.86-14.18L62.86-14.18Q62.86-16.67 62-18.42 61.13-20.17 59.64-21.06 58.15-21.95 56.35-21.95L56.35-21.95Q53.9-21.95 51.58-20.56 49.27-19.17 47.79-16.55 46.31-13.94 46.31-10.45L46.31-10.45Q46.31-6.91 47.6-4.37 48.9-1.83 51.01-0.55 53.12 0.73 55.49 0.73L55.49 0.73ZM55.15-19.56Q58.52-19.56 58.52-15.01L58.52-15.01Q58.52-14.65 58.48-14.12 58.44-13.6 58.37-13.33L58.37-13.33 50.71-12.77Q50.83-15.01 51.5-16.54 52.17-18.07 53.15-18.81 54.12-19.56 55.15-19.56L55.15-19.56ZM77.97 0.59Q80.61 0.59 82.28-0.62 83.95-1.83 84.66-3.2L84.66-3.2 84.93-3.2 84.93-2.83Q84.93-2.03 85.31-1.28 85.69-0.54 86.54-0.05 87.39 0.44 88.71 0.44L88.71 0.44Q89.74 0.44 90.91 0.17L90.91 0.17Q91.67 0.02 92.03-0.02L92.03-0.02 92.35-2.12 91.13-2.34Q89.98-2.54 89.41-2.87 88.84-3.2 88.62-3.82 88.4-4.44 88.4-5.62L88.4-5.62 88.4-14.48Q88.4-18.38 86.99-20.18 85.59-21.97 82.37-21.97L82.37-21.97Q80.66-21.97 78.68-21.26 76.7-20.56 75.36-19.4 74.02-18.24 74.02-16.97L74.02-16.97Q74.02-15.38 74.99-14.92 75.97-14.45 77.41-14.45L77.41-14.45Q77.63-16.92 77.79-17.85 77.95-18.77 78.46-19.24 78.97-19.7 80.12-19.7L80.12-19.7Q82.44-19.7 83.44-17.86 84.44-16.02 84.44-13.18L84.44-13.18 84.44-11.84Q80.63-11.57 78.11-10.44 75.58-9.3 74.38-7.64 73.19-5.98 73.19-4.1L73.19-4.1Q73.19-2.66 73.83-1.6 74.48-0.54 75.58 0.02 76.68 0.59 77.97 0.59L77.97 0.59ZM84.44-10.45L84.44-4.59Q83.71-3.78 82.54-3.1 81.36-2.42 80.19-2.42L80.19-2.42Q79.34-2.42 78.72-2.86 78.09-3.3 77.78-3.96 77.46-4.61 77.46-5.25L77.46-5.25Q77.46-7.13 79.05-8.41 80.63-9.69 84.44-10.45L84.44-10.45ZM106.75 0L107-2.12 101.31-2.95 101.31-12.3Q101.55-14.04 102.27-15.23 102.99-16.43 103.87-17.03 104.75-17.63 105.48-17.63L105.48-17.63Q106.19-17.63 106.97-17.37 107.75-17.11 108.46-16.67L108.46-16.67Q109.85-17.85 109.85-19.38L109.85-19.38Q109.85-20.48 109.1-21.3 108.34-22.12 107.14-22.12L107.14-22.12Q106.04-22.12 104.92-21.37 103.8-20.63 102.8-19.14 101.8-17.65 101.16-15.53L101.16-15.53 100.7-15.53 101.19-21.14 100.62-21.73 93.62-20.83 93.28-18.97 97.26-17.77 97.26-2.78 93.52-1.81 93.28 0 106.75 0ZM120.72 0.73Q123.11 0.73 125.2-0.13 127.28-1 128.75-2.54L128.75-2.54 128.23-3.83Q127.04-3.2 126.13-2.91 125.23-2.61 124.55-2.55 123.86-2.49 122.69-2.49L122.69-2.49Q120.54-2.49 119.04-3.72 117.54-4.96 116.76-6.88 115.98-8.81 115.88-10.86L115.88-10.86 127.7-11.01Q127.84-11.65 127.97-12.63 128.09-13.62 128.09-14.18L128.09-14.18Q128.09-16.67 127.22-18.42 126.35-20.17 124.87-21.06 123.38-21.95 121.57-21.95L121.57-21.95Q119.13-21.95 116.81-20.56 114.49-19.17 113.01-16.55 111.54-13.94 111.54-10.45L111.54-10.45Q111.54-6.91 112.83-4.37 114.12-1.83 116.24-0.55 118.35 0.73 120.72 0.73L120.72 0.73ZM120.37-19.56Q123.74-19.56 123.74-15.01L123.74-15.01Q123.74-14.65 123.71-14.12 123.67-13.6 123.6-13.33L123.6-13.33 115.93-12.77Q116.05-15.01 116.72-16.54 117.39-18.07 118.37-18.81 119.35-19.56 120.37-19.56L120.37-19.56ZM137.51 0L149.18 0 149.47-1.95 145.59-2.83 145.59-31.13 144.98-31.71 137.95-31.18 137.65-29.32 141.51-28 141.51-2.83 137.78-1.93 137.51 0ZM156.43-26.12Q157.21-26.12 157.9-26.53 158.6-26.93 159-27.61 159.4-28.3 159.4-29.1L159.4-29.1Q159.4-30.27 158.52-31.08 157.65-31.88 156.43-31.88L156.43-31.88Q155.25-31.88 154.39-31.09 153.52-30.3 153.52-29.15L153.52-29.15Q153.52-28.34 153.91-27.65 154.3-26.95 154.97-26.54 155.64-26.12 156.43-26.12L156.43-26.12ZM150.61 0L162.33 0 162.6-1.95 158.7-2.83 158.7-21 158.09-21.61 151.23-21.04 150.91-19.19 154.59-17.85 154.59-2.83 150.91-1.93 150.61 0ZM175.17 0L175.44-1.93 171.95-2.78 171.95-16.43Q172.85-17.46 174.12-18.01 175.39-18.55 176.76-18.55L176.76-18.55Q177.93-18.55 178.88-18.02 179.84-17.48 180.39-16.5 180.93-15.53 180.93-14.28L180.93-14.28 180.93-2.78 177.74-1.81 177.47 0 188.28 0 188.53-1.93 184.91-2.78 184.91-16.11Q185.99-17.26 187.05-17.91 188.11-18.55 189.58-18.55L189.58-18.55Q191.48-18.55 192.58-17.33 193.68-16.11 193.68-14.28L193.68-14.28 193.68-2.76 190.63-1.78 190.46 0 200.83 0 201.15-1.93 197.78-2.81 197.78-14.87Q197.78-21.68 192.02-21.68L192.02-21.68Q189.85-21.68 187.98-20.59 186.11-19.51 184.82-17.85L184.82-17.85 184.52-17.85Q183.99-19.92 182.48-20.9 180.98-21.88 179.13-21.88L179.13-21.88Q176.98-21.88 175.04-20.78 173.1-19.68 171.8-18.07L171.8-18.07 171.58-18.07 172.02-21.14 171.58-21.66 164.16-20.63 163.92-18.8 167.82-17.55 167.82-2.78 164.16-1.81 163.92 0 175.17 0ZM208.25-26.12Q209.03-26.12 209.73-26.53 210.42-26.93 210.83-27.61 211.23-28.3 211.23-29.1L211.23-29.1Q211.23-30.27 210.35-31.08 209.47-31.88 208.25-31.88L208.25-31.88Q207.08-31.88 206.21-31.09 205.35-30.3 205.35-29.15L205.35-29.15Q205.35-28.34 205.74-27.65 206.13-26.95 206.8-26.54 207.47-26.12 208.25-26.12L208.25-26.12ZM202.44 0L214.16 0 214.43-1.95 210.52-2.83 210.52-21 209.91-21.61 203.05-21.04 202.73-19.19 206.42-17.85 206.42-2.83 202.73-1.93 202.44 0ZM218.48-18.63L218.38-6.35Q218.36-2.54 219.74-0.99 221.12 0.56 223.58 0.56L223.58 0.56Q225.63 0.56 227.34-0.39 229.05-1.34 230.2-3.03L230.2-3.03 229.68-4.35Q229.68-4.32 229.11-3.96 228.54-3.59 227.76-3.28 226.97-2.98 226.17-2.98L226.17-2.98Q224.87-2.98 224.09-3.42 223.31-3.86 222.95-4.91 222.58-5.96 222.58-7.79L222.58-7.79 222.65-18.58 229.39-18.58 229.61-20.73 222.7-20.73 222.7-26.54 221.41-26.54Q220.09-24.73 218.48-22.95 216.87-21.17 215.38-19.95L215.38-19.95 215.38-18.63 218.48-18.63ZM230.78 0L242.45 0 242.74-1.95 238.86-2.83 238.86-31.13 238.25-31.71 231.22-31.18 230.93-29.32 234.78-28 234.78-2.83 231.05-1.93 230.78 0ZM253.46 0.73Q255.85 0.73 257.94-0.13 260.03-1 261.49-2.54L261.49-2.54 260.98-3.83Q259.78-3.2 258.88-2.91 257.98-2.61 257.29-2.55 256.61-2.49 255.44-2.49L255.44-2.49Q253.29-2.49 251.79-3.72 250.28-4.96 249.5-6.88 248.72-8.81 248.62-10.86L248.62-10.86 260.44-11.01Q260.59-11.65 260.71-12.63 260.83-13.62 260.83-14.18L260.83-14.18Q260.83-16.67 259.97-18.42 259.1-20.17 257.61-21.06 256.12-21.95 254.31-21.95L254.31-21.95Q251.87-21.95 249.55-20.56 247.23-19.17 245.76-16.55 244.28-13.94 244.28-10.45L244.28-10.45Q244.28-6.91 245.57-4.37 246.87-1.83 248.98-0.55 251.09 0.73 253.46 0.73L253.46 0.73ZM253.12-19.56Q256.49-19.56 256.49-15.01L256.49-15.01Q256.49-14.65 256.45-14.12 256.41-13.6 256.34-13.33L256.34-13.33 248.67-12.77Q248.8-15.01 249.47-16.54 250.14-18.07 251.11-18.81 252.09-19.56 253.12-19.56L253.12-19.56ZM270.86 0.83Q272.74 0.83 274.49 0.02 276.23-0.78 277.31-2.21 278.38-3.64 278.38-5.37L278.38-5.37Q278.38-7.01 277.53-8.26 276.67-9.52 275.47-10.38 274.26-11.23 272.3-12.3L272.3-12.3Q270.69-13.21 269.79-13.82 268.89-14.43 268.28-15.22 267.67-16.02 267.67-16.99L267.67-16.99Q267.67-18.21 268.41-19.07 269.15-19.92 270.4-19.92L270.4-19.92Q271.82-19.92 272.79-18.54 273.77-17.16 274.21-14.38L274.21-14.38Q275.8-14.48 276.71-15.36 277.63-16.24 277.63-17.63L277.63-17.63Q277.63-18.85 276.88-19.84 276.14-20.83 274.77-21.4 273.4-21.97 271.64-21.97L271.64-21.97Q269.33-21.97 267.68-20.98 266.03-20 265.2-18.51 264.37-17.02 264.37-15.5L264.37-15.5Q264.37-13.75 265.26-12.4 266.15-11.06 267.41-10.14 268.67-9.23 270.67-8.08L270.67-8.08Q272.13-7.25 272.95-6.7 273.77-6.15 274.31-5.48 274.84-4.81 274.84-4.03L274.84-4.03Q274.84-2.76 273.94-2.16 273.04-1.56 271.62-1.56L271.62-1.56Q270.11-1.56 268.84-2.77 267.57-3.98 266.76-6.37L266.76-6.37Q265.39-6.27 264.59-5.3 263.78-4.32 263.78-2.95L263.78-2.95Q263.78-1.98 264.66-1.1 265.54-0.22 267.15 0.31 268.76 0.83 270.86 0.83L270.86 0.83ZM287.88 0.83Q289.76 0.83 291.5 0.02 293.25-0.78 294.32-2.21 295.4-3.64 295.4-5.37L295.4-5.37Q295.4-7.01 294.54-8.26 293.69-9.52 292.48-10.38 291.27-11.23 289.32-12.3L289.32-12.3Q287.71-13.21 286.8-13.82 285.9-14.43 285.29-15.22 284.68-16.02 284.68-16.99L284.68-16.99Q284.68-18.21 285.42-19.07 286.17-19.92 287.41-19.92L287.41-19.92Q288.83-19.92 289.81-18.54 290.78-17.16 291.22-14.38L291.22-14.38Q292.81-14.48 293.72-15.36 294.64-16.24 294.64-17.63L294.64-17.63Q294.64-18.85 293.9-19.84 293.15-20.83 291.78-21.4 290.42-21.97 288.66-21.97L288.66-21.97Q286.34-21.97 284.69-20.98 283.04-20 282.21-18.51 281.38-17.02 281.38-15.5L281.38-15.5Q281.38-13.75 282.27-12.4 283.17-11.06 284.42-10.14 285.68-9.23 287.68-8.08L287.68-8.08Q289.15-7.25 289.96-6.7 290.78-6.15 291.32-5.48 291.86-4.81 291.86-4.03L291.86-4.03Q291.86-2.76 290.95-2.16 290.05-1.56 288.63-1.56L288.63-1.56Q287.12-1.56 285.85-2.77 284.58-3.98 283.78-6.37L283.78-6.37Q282.41-6.27 281.6-5.3 280.8-4.32 280.8-2.95L280.8-2.95Q280.8-1.98 281.68-1.1 282.56-0.22 284.17 0.31 285.78 0.83 287.88 0.83L287.88 0.83Z" opacity="1" transform="matrix(1,0,0,1,0,0)" fill="#000000" class="slogan-text-1" data-fill-palette-color="secondary" id="text-1"></path></svg></g></svg></g></svg></g></svg></g><g transform="matrix(1,0,0,1,165.83704680341376,0)"><svg viewBox="0 0 65.82350639317242 52.41185460385588" height="52.41185460385588" width="65.82350639317242"><g><svg xmlns="http://www.w3.org/2000/svg" xmlns:xlink="http://www.w3.org/1999/xlink" version="1.1" x="8" y="0" viewBox="7.263636363636364 3.4647197189138446 145.57272727272726 153.13528028108615" style="enable-background:new 0 0 160 160;" xml:space="preserve" height="52.41185460385588" width="49.82350639317242" class="icon-icon-0" data-fill-palette-color="accent" id="icon-0"><g fill="#81ffd9" data-fill-palette-color="accent"><rect x="27.3" y="140.9" transform="matrix(0.27 -0.9629 0.9629 0.27 -111.6068 138.53)" width="16.5" height="4" fill="#000000" data-fill-palette-color="accent"></rect><rect x="122.4" y="134.6" transform="matrix(0.9628 -0.2701 0.2701 0.9628 -33.968 38.9285)" width="4" height="16.5" fill="#000000" data-fill-palette-color="accent"></rect><rect x="78" y="137.8" width="4" height="18.1" fill="#000000" data-fill-palette-color="accent"></rect><path d="M12.1 104.1c-0.9-1.9-1.1-4-0.6-6l4.6-16.4c0.5-1.7 1.8-2.9 3.3-3l16.3-1.7c0.6-0.1 1.2 0.1 1.7 0.6 0.6 0.5 1 1.4 1 2.3 0 0.2 0 0.4 0 0.6 0 0.1 0 0.3-0.1 0.4l0.1-0.1 5-3.2L50 54.5c0.3-1.1 1-2 1.9-2.4 0.8-0.4 1.7-0.5 2.5-0.2 2 0.7 3.1 3.1 2.5 5.3l-4 14.3 5-3.2 1.7-6.2c0.3-1.1 1-2 1.9-2.4 0.8-0.4 1.7-0.5 2.5-0.2 1.4 0.5 2.3 1.8 2.6 3.3 1.2-0.7 2.4-1.3 3.7-1.8-0.8-2.4-2.5-4.4-4.9-5.2-1.4-0.5-2.9-0.5-4.3-0.1-0.2-3.3-2.2-6.4-5.3-7.4-1.9-0.7-3.9-0.5-5.7 0.4-1.9 1-3.3 2.7-3.9 4.8-0.8-0.9-1.9-1.6-3.1-2.1-1.9-0.7-3.9-0.5-5.7 0.4-1.9 1-3.3 2.8-3.9 4.9l-4.7 16.9-9.7 1c-3.2 0.3-5.8 2.7-6.7 5.9L7.7 97c-0.8 3-0.5 6.1 0.9 8.9l8.1 16.3c0.7 1.4 0.9 3.1 0.4 4.6L12 144.9l3.9 1.1 5.1-18.1c0.7-2.5 0.4-5.2-0.7-7.5L12.1 104.1zM37.3 57.7c0.3-1.1 1-2 1.9-2.4 0.8-0.4 1.7-0.5 2.5-0.2 2 0.7 3.1 3.1 2.5 5.3l-4 14.2c-0.1 0-0.1-0.1-0.2-0.2-1.3-1.2-3-1.7-4.8-1.5L33 73.2 37.3 57.7z" fill="#000000" data-fill-palette-color="accent"></path><path d="M151.5 105.9c1.4-2.8 1.7-5.9 0.9-8.9l-4.6-16.4c-0.9-3.3-3.6-5.6-6.7-5.9l-9.7-1-4.7-16.9c-0.6-2.1-2-3.9-3.9-4.9-1.8-0.9-3.8-1.1-5.7-0.4-1.2 0.4-2.3 1.1-3.1 2.1-0.6-2.1-2-3.9-3.9-4.8-1.8-0.9-3.8-1.1-5.7-0.4-3.1 1.1-5.2 4.1-5.3 7.4-1.4-0.4-2.9-0.4-4.3 0.1-2.4 0.8-4.2 2.8-4.9 5.2 1.3 0.5 2.5 1.1 3.7 1.8 0.2-1.5 1.2-2.8 2.6-3.3 0.8-0.3 1.7-0.2 2.5 0.2 0.9 0.5 1.6 1.3 1.9 2.4l1.7 6.1 5 3.2L104.2 61c0 0 0 0 0 0l-1.1-3.8c-0.6-2.2 0.5-4.6 2.5-5.3 0.8-0.3 1.7-0.2 2.5 0.2 0.9 0.5 1.6 1.3 1.9 2.4l6.3 22.8 5 3.2 0.2 0.1c0-0.1 0-0.2 0-0.3 0-0.2 0-0.4 0-0.6 0-0.9 0.4-1.7 1-2.3 0.5-0.4 1.1-0.6 1.7-0.6l16.3 1.7c1.5 0.2 2.8 1.4 3.3 3l4.6 16.4c0.6 2 0.4 4.2-0.6 6l-8.1 16.3c-1.2 2.3-1.4 5-0.7 7.5l5.1 18.1 3.9-1.1-5.1-18.1c-0.4-1.5-0.3-3.2 0.4-4.6L151.5 105.9zM124.7 72.9c-1.7-0.2-3.4 0.4-4.8 1.5-0.1 0-0.1 0.1-0.2 0.2l-4-14.2c-0.6-2.2 0.5-4.6 2.5-5.3 0.8-0.3 1.7-0.2 2.5 0.2 0.9 0.5 1.6 1.3 1.9 2.4l4.3 15.4L124.7 72.9z" fill="#000000" data-fill-palette-color="accent"></path><path d="M42.9 35.6c5.4 6.1 12.9 10.3 21 11.7 1.4 0.3 2.8 0.4 4.3 0.4 2.5 0 5-0.4 7.4-1.1l2.6-0.8v16.4c-3.6 0.3-7.2 1.5-10.4 3.5l-31.2 20 1.2 0.7c0.9 0.5 1.8 1 2.7 1.6L69.7 69c6.3-4 14.3-4 20.6 0l29.5 18.8c0.8-0.6 1.7-1.1 2.6-1.6l1.3-0.7L92.4 65.7c-3.2-2-6.8-3.2-10.5-3.5V33.7l2.1 0.7c2.4 0.8 4.9 1.1 7.3 1.1 1.4 0 2.9-0.1 4.3-0.4 8.1-1.4 15.5-5.6 21-11.7 3.7-4.2 8.6-7.2 14.1-8.5l3.5-0.9-2.8-2.8c-6-5.8-14.3-8.6-22.4-7.5L107.5 4c-8.9 1.2-16.8 5.8-22.3 12.7-2.2 2.8-3.9 5.9-5 9.2l-1.4 4.2c-0.5 1.5-0.8 3.1-0.8 4.8-1-2.1-2.2-4.1-3.7-6-5.5-7-13.5-11.5-22.3-12.7L50.7 16l-0.2 0c-8.1-1.1-16.4 1.7-22.4 7.5l-2.8 2.8 3.5 0.9C34.2 28.5 39.1 31.4 42.9 35.6zM88.3 19.2C93.2 13.1 100.2 9.1 108 8l1.5-0.2c5.9-0.8 11.9 0.8 16.7 4.4-4.8 1.8-9.1 4.8-12.6 8.6-4.8 5.4-11.5 9.1-18.7 10.4-3 0.5-6.1 0.4-9.1-0.5 4.7-6 14.3-16.2 14.3-16.2l-0.2 0.1c-6.1 2.8-11.5 6.9-15.8 11.9C85.2 23.9 86.5 21.4 88.3 19.2zM50 19.9l0.1 0 1.3 0.2c7.8 1.1 14.8 5.1 19.7 11.3 1.7 2.1 3 4.5 4 7.1-3.9-3.2-8.5-5.6-13.5-6.7 0 0 8.3 7.4 11.9 10.6l0.5 0.4c-3.1 1-6.4 1.2-9.6 0.6-7.2-1.3-13.8-5-18.7-10.4-3.5-3.9-7.8-6.8-12.6-8.6C38.1 20.8 44.1 19.1 50 19.9z" fill="#000000" data-fill-palette-color="accent"></path><path d="M63.5 127.3l-6.6 5.6c-1.7 1.5-3 3.4-3.6 5.6l-4.7 16.9 3.9 1.1 4.7-16.9c0.4-1.4 1.2-2.7 2.4-3.7l6.6-5.6c0.6-0.5 1.2-1.1 1.7-1.7v-7.1C66.9 123.7 65.4 125.7 63.5 127.3z" fill="#000000" data-fill-palette-color="accent"></path><path d="M103 132.9l-6.6-5.6c-1.9-1.6-3.3-3.5-4.3-5.7v7.1c0.5 0.6 1.1 1.2 1.7 1.7l6.6 5.6c1.1 1 2 2.2 2.4 3.7l4.7 16.9 3.9-1.1-4.7-16.9C106 136.3 104.8 134.4 103 132.9z" fill="#000000" data-fill-palette-color="accent"></path><path d="M70.6 112.8l-20.4-5.7c-1.9-7.8-6.9-14.4-14-18.2l-11-6-1.9 3.5 11 6c6.4 3.5 10.9 9.6 12.2 16.7l0.2 1.2 22.8 6.4 1.4 0.4v7.4 22.3h4V114l-0.5-0.1L70.6 112.8z" fill="#000000" data-fill-palette-color="accent"></path><path d="M123.9 88.9c-7.1 3.8-12.1 10.4-14 18.2l-20.4 5.7-3.9 1.1-0.5 0.1v32.7h4v-22.3-7.4l1.4-0.4 22.8-6.4 0.2-1.2c1.4-7.1 5.8-13.2 12.2-16.7l11-6-1.9-3.5L123.9 88.9z" fill="#000000" data-fill-palette-color="accent"></path></g></svg></g></svg></g><g><rect width="89.30392680341379" height="1.8446295146577474" y="49.56722508919813" x="231.6605531965862" fill="#000000" data-fill-palette-color="secondary"></rect><rect width="89.30392680341379" height="1.8446295146577474" y="49.56722508919813" x="76.53311999999997" fill="#000000" data-fill-palette-color="secondary"></rect></g></svg></g><defs></defs></svg><rect width="395.52" height="101.33221075159497" fill="none" stroke="none" visibility="hidden"></rect></g></svg></g></svg>